<?xml version="1.0" standalone="no"?>
<!DOCTYPE svg PUBLIC "-//W3C//DTD SVG 1.1//EN" "http://www.w3.org/Graphics/SVG/1.1/DTD/svg11.dtd">
<svg width="20px" height="20px" version="1.1" xmlns="http://www.w3.org/2000/svg" xmlns:xlink="http://www.w3.org/1999/xlink" xml:space="preserve" style="fill-rule:evenodd;clip-rule:evenodd;stroke-linejoin:round;stroke-miterlimit:1.41421;">
    <g>
        <g id="menu">
            <g id="bar3">
                <path d="M18.4994,3.63468C18.4994,3.15143 18.1076,2.75968 17.6244,2.75968L2.37561,2.75968C1.89236,2.75968 1.50061,3.15143 1.50061,3.63468L1.50061,5.38468C1.50061,5.86793 1.89236,6.25968 2.37561,6.25968L17.6244,6.25968C18.1076,6.25968 18.4994,5.86793 18.4994,5.38468L18.4994,3.63468Z" style="fill:white;"/>
            </g>
            <g id="bar2">
                <path d="M18.4994,9.36532C18.4994,8.88207 18.1076,8.49032 17.6244,8.49032L2.37561,8.49032C1.89236,8.49032 1.50061,8.88207 1.50061,9.36532L1.50061,11.1153C1.50061,11.5986 1.89236,11.9903 2.37561,11.9903L17.6244,11.9903C18.1076,11.9903 18.4994,11.5986 18.4994,11.1153L18.4994,9.36532Z" style="fill:white;"/>
            </g>
            <g id="bar1">
                <path d="M18.4994,14.6153C18.4994,14.1321 18.1076,13.7403 17.6244,13.7403L2.37561,13.7403C1.89236,13.7403 1.50061,14.1321 1.50061,14.6153L1.50061,16.3653C1.50061,16.8486 1.89236,17.2403 2.37561,17.2403L17.6244,17.2403C18.1076,17.2403 18.4994,16.8486 18.4994,16.3653L18.4994,14.6153Z" style="fill:white;"/>
            </g>
        </g>
    </g>
</svg>
