<?xml version="1.0" standalone="no"?>
<!DOCTYPE svg PUBLIC "-//W3C//DTD SVG 1.1//EN" "http://www.w3.org/Graphics/SVG/1.1/DTD/svg11.dtd">
<svg width="20px" height="20px" version="1.1" xmlns="http://www.w3.org/2000/svg" xmlns:xlink="http://www.w3.org/1999/xlink" xml:space="preserve" style="fill-rule:evenodd;clip-rule:evenodd;stroke-linejoin:round;stroke-miterlimit:1.41421;">
    <g>
        <g id="spyglass">
            <g>
                <path d="M7.99206,14.5187C7.68792,14.5168 7.38482,14.4979 7.08349,14.4557C6.47467,14.3705 5.87859,14.1981 5.31843,13.9448C4.05627,13.3742 2.9932,12.3965 2.31738,11.1875C2.00708,10.6324 1.77932,10.0318 1.64405,9.41044C1.49184,8.71126 1.45646,7.98688 1.53772,7.27601C1.61375,6.61089 1.79345,5.9584 2.06925,5.34838C2.39181,4.63493 2.84459,3.98175 3.39819,3.42815C3.97045,2.85589 4.64908,2.39149 5.39061,2.0671C6.15742,1.73164 6.98779,1.54861 7.82438,1.52743C8.66713,1.50609 9.51207,1.64764 10.3003,1.94729C11.0584,2.23552 11.7601,2.66756 12.3603,3.21303C12.9388,3.73882 13.4216,4.36855 13.778,5.06438C14.0814,5.65671 14.2923,6.29558 14.4011,6.95214C14.5137,7.63204 14.518,8.33014 14.4139,9.0114C14.3172,9.6442 14.126,10.2619 13.8481,10.8386C13.2355,12.1101 12.2059,13.1646 10.9497,13.808C10.4056,14.0866 9.82225,14.2874 9.2219,14.4025C8.92595,14.4592 8.6271,14.4931 8.32638,14.5103C8.21491,14.5152 8.10363,14.518 7.99206,14.5187ZM7.99206,12.5187C8.62975,12.5146 9.25981,12.3855 9.84174,12.1224C10.6994,11.7346 11.4251,11.0747 11.8942,10.2588C12.1127,9.87871 12.275,9.46663 12.3736,9.03937C12.4938,8.51885 12.5198,7.97663 12.4525,7.44677C12.3966,7.00708 12.275,6.57622 12.0924,6.17234C11.869,5.67815 11.5551,5.22584 11.1717,4.84238C10.7754,4.44606 10.3055,4.12414 9.7919,3.89947C9.24369,3.65964 8.64887,3.53328 8.0507,3.52572C7.44985,3.51812 6.84927,3.62957 6.29281,3.85692C5.77354,4.06908 5.29576,4.37979 4.88984,4.76681C4.49754,5.14082 4.17308,5.58526 3.93778,6.0736C3.74599,6.47164 3.61403,6.89795 3.5473,7.33471C3.46656,7.86318 3.4796,8.40659 3.58678,8.93038C3.67488,9.36093 3.82716,9.77786 4.03693,10.164C4.48613,10.9909 5.19583,11.6678 6.04365,12.0763C6.61648,12.3523 7.24036,12.4971 7.87502,12.5172C7.93394,12.5183 7.93348,12.5183 7.99206,12.5187Z" style="fill:rgb(119,119,119);fill-rule:nonzero;"/>
            </g>
            <g>
                <path d="M17.4751,18.4827C17.4132,18.4813 17.3523,18.477 17.2913,18.4657C17.1066,18.4311 16.9424,18.3444 16.8014,18.2217C14.9088,16.4146 13.0574,14.5632 11.2503,12.6706C11.1482,12.5533 11.0703,12.4209 11.0275,12.2706C10.9292,11.925 11.0282,11.5439 11.2822,11.2898C11.3585,11.2136 11.4471,11.1498 11.5436,11.1017C11.6539,11.0468 11.7743,11.0125 11.897,11.0012C12.0198,10.9898 12.1444,11.0014 12.263,11.0351C12.4133,11.0778 12.5457,11.1558 12.663,11.2579C14.5556,13.065 16.407,14.9164 18.2141,16.809C18.3059,16.9145 18.3786,17.0317 18.4233,17.1649C18.5374,17.5056 18.4562,17.8909 18.2141,18.1564C18.1518,18.2247 18.0801,18.2842 18.0015,18.3329C17.8687,18.4152 17.7219,18.4605 17.5674,18.4784C17.5213,18.4816 17.5216,18.4816 17.4751,18.4827Z" style="fill:rgb(119,119,119);fill-rule:nonzero;"/>
            </g>
        </g>
    </g>
</svg>
