<svg xmlns="http://www.w3.org/2000/svg" style="display:none"><symbol id="icon-logo" fill="#777"><g><path d="M9.987 16.07c-.58.524-1.592.785-3.035.785H0V3.145h6.704c1.547 0 2.582.287 3.104.86.535.495.8 1.397.8 2.706 0 1.036-.183 1.798-.552 2.286-.293.357-.743.607-1.353.75v.07c.67.078 1.17.29 1.497.637.328.347.532.73.612 1.147.08.418.12.897.12 1.435 0 1.48-.316 2.49-.945 3.035zm-3.07-7.222c.433-.077.728-.28.886-.604.16-.326.238-.752.238-1.28 0-.51-.082-.895-.247-1.15-.125-.162-.306-.27-.542-.33-.236-.06-.614-.09-1.134-.09H2.57v3.49H6.08c.403 0 .682-.012.836-.036zm-.374 2.05H2.57v3.708h3.835c.467 0 .833-.035 1.1-.107.56-.21.84-.77.84-1.684 0-.755-.112-1.267-.34-1.535-.26-.255-.748-.383-1.462-.383z"/><path d="M16.774 16.856L10.94 9.838l5.373-6.694h3.134l-5.402 6.71L20 16.855z"/></g></symbol><symbol id="icon-menu" fill="#777"><g><path d="M18.5 3.635c0-.484-.392-.875-.876-.875H2.376c-.484 0-.875.39-.875.875v1.75c0 .483.392.875.876.875h15.248c.484 0 .875-.392.875-.875v-1.75z"/><path d="M18.5 9.365c0-.483-.392-.875-.876-.875H2.376c-.484 0-.875.392-.875.875v1.75c0 .484.392.875.876.875h15.248c.484 0 .875-.39.875-.875v-1.75z"/><path d="M18.5 14.615c0-.483-.392-.875-.876-.875H2.376c-.484 0-.875.392-.875.875v1.75c0 .484.392.875.876.875h15.248c.484 0 .875-.39.875-.875v-1.75z"/></g></symbol><symbol id="icon-spyglass" fill="#777"><g><path d="M7.992 14.52c-.304-.003-.607-.022-.91-.064-.607-.085-1.203-.258-1.764-.51-1.262-.572-2.325-1.55-3-2.758-.31-.556-.54-1.156-.674-1.778-.152-.7-.188-1.423-.106-2.134.076-.665.255-1.318.53-1.928.324-.713.777-1.366 1.33-1.92.572-.572 1.25-1.037 1.993-1.36.767-.336 1.598-.52 2.434-.54.843-.022 1.688.12 2.476.42.758.288 1.46.72 2.06 1.265.58.526 1.062 1.156 1.418 1.85.303.594.514 1.233.623 1.89.114.68.118 1.377.014 2.058-.097.634-.288 1.252-.566 1.83-.613 1.27-1.642 2.325-2.898 2.968-.544.28-1.128.48-1.728.595-.296.056-.595.09-.896.107-.11.005-.222.008-.334.01zm0-2c.638-.005 1.268-.134 1.85-.398.857-.387 1.583-1.047 2.052-1.863.22-.38.38-.793.48-1.22.12-.52.146-1.063.08-1.593-.057-.44-.18-.87-.362-1.275-.223-.494-.537-.946-.92-1.33-.397-.396-.867-.718-1.38-.943-.548-.24-1.143-.367-1.74-.374-.602-.008-1.203.104-1.76.33-.518.213-.996.524-1.402.91-.392.375-.717.82-.952 1.308-.192.398-.324.824-.39 1.26-.08.53-.068 1.073.04 1.596.087.43.24.848.45 1.234.448.827 1.158 1.504 2.006 1.912.572.276 1.196.42 1.83.44l.118.003zM17.475 18.483c-.062-.002-.123-.006-.184-.017-.183-.035-.348-.122-.49-.244-1.89-1.807-3.743-3.66-5.55-5.55-.102-.12-.18-.25-.223-.4-.098-.347 0-.728.255-.982.076-.076.165-.14.262-.188.11-.055.23-.09.353-.1.123-.012.247 0 .366.033.15.043.283.12.4.223 1.893 1.807 3.744 3.658 5.55 5.55.093.107.166.224.21.357.114.34.033.726-.21.99-.06.07-.133.13-.212.178-.13.082-.278.128-.433.145-.046.004-.045.004-.092.005z"/></g></symbol></svg>