<?xml version="1.0" encoding="utf-8"?>
<!-- Generator: Adobe Illustrator 15.1.0, SVG Export Plug-In . SVG Version: 6.00 Build 0)  -->
<!DOCTYPE svg PUBLIC "-//W3C//DTD SVG 1.1//EN" "http://www.w3.org/Graphics/SVG/1.1/DTD/svg11.dtd">
<svg version="1.1" id="Layer_1" xmlns="http://www.w3.org/2000/svg" xmlns:xlink="http://www.w3.org/1999/xlink" x="0px" y="0px"
	 width="70px" height="70px" viewBox="215 423.833 70 70" enable-background="new 215 423.833 70 70" xml:space="preserve">
<circle fill="#41307F" cx="250" cy="458.833" r="30"/>
<g>
	<g>
		<path fill="#FFFFFF" d="M250,432.727c-14.408,0-26.09,11.633-26.09,25.98c0,14.349,11.683,25.979,26.09,25.979
			c14.407,0,26.089-11.631,26.089-25.979C276.09,444.359,264.407,432.727,250,432.727z M250,481.123
			c-8.631,0-16.113-4.834-19.888-11.927l0,0l0,0l0,0c-1.673-3.137-2.625-6.698-2.625-10.489c0-12.387,10.074-22.418,22.512-22.418
			c5.251,0,10.075,1.8,13.882,4.772l0,0l0,0l0,0c4.035,3.136,6.925,7.614,8.074,12.776l0,0l0,0l0,0
			c0.36,1.57,0.523,3.201,0.523,4.869C272.515,471.093,262.438,481.123,250,481.123z"/>
		<path fill="#FFFFFF" d="M267.031,449.034c0-1.046-0.097-2.091-0.228-3.138c-0.658-0.849-1.381-1.666-2.167-2.387
			c0.362,1.438,0.591,2.91,0.691,4.381c-3.809-2.353-8.304-3.693-13.097-3.693c-2.888,0-5.677,0.49-8.268,1.407
			c-0.296-0.362-0.625-0.656-1.018-0.885c0.952-2.516,2.362-4.869,4.133-6.896c-0.854,0.133-1.706,0.294-2.527,0.522
			c-1.345,1.83-2.396,3.825-3.216,5.916c-0.064,0-0.099,0-0.164,0c-1.708,0-3.118,1.209-3.479,2.777
			c-2.199,0.297-4.332,0.851-6.333,1.668c-0.396,0.75-0.756,1.503-1.083,2.317c2.329-1.173,4.823-1.962,7.449-2.317
			c0,0.032,0.033,0.062,0.033,0.098c-3.969,2.842-7.088,6.797-8.86,11.402c0.098,1.276,0.296,2.517,0.591,3.729
			c1.28-5.588,4.562-10.427,9.089-13.696c0.329,0.362,0.757,0.656,1.215,0.852c-0.033,0.62-0.066,1.242-0.066,1.895
			c0,6.731,2.69,12.813,7.055,17.289c-0.295,0.521-0.458,1.11-0.458,1.765v0.033c-1.379,0.259-2.823,0.392-4.266,0.392
			c-3.38,0-6.662-0.751-9.681-2.127c0.59,0.918,1.279,1.769,2.002,2.551c2.46,0.783,5.052,1.211,7.679,1.211
			c1.608,0,3.149-0.164,4.66-0.457c0.589,1.142,1.77,1.928,3.149,1.928c0.952,0,1.838-0.393,2.492-1.014
			c2.3,1.307,4.794,2.253,7.45,2.778c0.755-0.394,1.511-0.851,2.199-1.31c-3.15-0.359-6.104-1.371-8.764-2.843
			c0.135-0.358,0.198-0.749,0.198-1.143c0-0.231-0.033-0.426-0.063-0.654c3.116-1.568,5.84-3.788,8.005-6.438
			c0.429,0.161,0.854,0.265,1.345,0.265c0.164,0,0.361-0.037,0.526-0.037c0.624,2.095,0.954,4.281,0.954,6.539
			c0,0.912-0.068,1.828-0.165,2.711c0.624-0.554,1.245-1.177,1.805-1.799c0-0.293,0.033-0.618,0.033-0.912
			c0-2.486-0.36-4.903-1.053-7.19c0.886-0.652,1.475-1.7,1.475-2.877c0-1.076-0.488-2.058-1.243-2.712
			c1.05-2.45,1.706-5.097,1.902-7.909c1.441,1.177,2.757,2.548,3.905,4.053c-0.229-1.24-0.524-2.449-0.95-3.626
			C269,450.603,268.05,449.786,267.031,449.034z M259.156,461.682c0,0.882,0.329,1.699,0.886,2.319
			c-2.002,2.415-4.495,4.444-7.352,5.883c-0.654-0.851-1.675-1.405-2.821-1.405c-0.722,0-1.38,0.227-1.938,0.588
			c-4.035-4.183-6.529-9.837-6.529-16.08c0-0.555,0.033-1.111,0.065-1.634c1.508-0.13,2.725-1.176,3.117-2.548
			c6.596,1.048,12.273,4.869,15.788,10.229C259.65,459.655,259.156,460.603,259.156,461.682z M263.553,458.216
			c-0.261-0.064-0.524-0.098-0.821-0.098c-0.293,0-0.589,0.033-0.886,0.098c-3.806-5.848-10.009-9.998-17.195-11.109
			c0,0,0,0,0-0.033c2.363-0.817,4.923-1.274,7.581-1.274c4.858,0,9.385,1.503,13.127,4.054
			C265.261,452.824,264.637,455.634,263.553,458.216z"/>
	</g>
</g>
</svg>
