<?xml version="1.0" encoding="utf-8"?>
<!-- Generator: Adobe Illustrator 15.1.0, SVG Export Plug-In . SVG Version: 6.00 Build 0)  -->
<!DOCTYPE svg PUBLIC "-//W3C//DTD SVG 1.1//EN" "http://www.w3.org/Graphics/SVG/1.1/DTD/svg11.dtd">
<svg version="1.1" id="Layer_1" xmlns="http://www.w3.org/2000/svg" xmlns:xlink="http://www.w3.org/1999/xlink" x="0px" y="0px"
	 width="500px" height="500px" viewBox="0 0 500 500" enable-background="new 0 0 500 500" xml:space="preserve">
<g>
	<path fill="#41307F" d="M224.667,152.75C224.75,152.75,224.75,152.75,224.667,152.75c32.75,5.083,60.917,24.083,78.25,50.833
		c1.25-0.333,2.583-0.5,4-0.5c1.333,0,2.583,0.167,3.75,0.417c4.916-11.75,7.833-24.583,8.166-38.083
		c-17-11.583-37.583-18.417-59.667-18.417C247.083,147,235.5,149,224.667,152.75z"/>
	<path fill="#41307F" d="M349.167,183.5C349.167,183.5,349.167,183.417,349.167,183.5L349.167,183.5
		c-5.834-23.5-18.584-43.917-36.917-58.333h-0.083c0,0,0,0-0.084,0c-17.417-13.667-39.333-21.833-63.167-21.833
		c-56.417,0-102.333,45.833-102.333,102.333c0,17.25,4.25,33.583,11.75,47.833l0,0h0.083c17.167,32.416,51.25,54.5,90.5,54.5
		c56.5,0,102.5-45.834,102.5-102.333C351.417,198,350.833,190.583,349.167,183.5L349.167,183.5z M326.083,170.833
		c-0.916,12.667-3.916,24.833-8.75,36c3.5,3,5.667,7.417,5.667,12.333c0,5.417-2.667,10.25-6.75,13.167
		c3.167,10.417,4.833,21.333,4.833,32.75c0,1.416,0,2.832-0.083,4.166c-2.583,2.916-5.333,5.666-8.25,8.25
		c0.5-4.166,0.75-8.25,0.75-12.416c0-10.418-1.5-20.417-4.333-29.917c-0.75,0.083-1.584,0.167-2.417,0.167
		c-2.167,0-4.167-0.417-6.083-1.167c-9.917,12.167-22.333,22.25-36.501,29.417c0.168,0.916,0.25,1.916,0.25,2.916
		c0,1.834-0.332,3.584-0.916,5.25c12,6.834,25.5,11.334,39.833,13.084c-3.166,2.25-6.499,4.25-9.999,6.082
		c-12.084-2.416-23.5-6.75-33.834-12.666c-2.916,2.834-6.916,4.584-11.25,4.584c-6.25,0-11.667-3.584-14.333-8.75
		c-6.917,1.332-14,2-21.25,2c-11.917,0-23.667-1.918-34.833-5.5c-3.333-3.668-6.417-7.5-9.083-11.668
		c13.667,6.25,28.667,9.668,44,9.668c6.667,0,13.083-0.668,19.417-1.834v-0.084c0-2.916,0.833-5.666,2.167-8.083
		c-19.833-20.5-32.083-48.333-32.083-79c0-2.917,0.083-5.75,0.333-8.667c-2.167-0.833-4-2.167-5.583-3.833
		c-20.583,14.917-35.583,37-41.333,62.5c-1.417-5.5-2.333-11.167-2.75-17c8.083-21.083,22.167-39.167,40.25-52.083
		c-0.083-0.167-0.083-0.333-0.167-0.5c-11.917,1.583-23.25,5.25-33.833,10.583c1.417-3.667,3.083-7.167,4.917-10.583
		c9.167-3.75,18.833-6.333,28.75-7.583c1.583-7.25,8.083-12.75,15.833-12.75c0.25,0,0.5,0,0.75,0
		c3.583-9.667,8.5-18.75,14.583-27.083c3.75-1,7.583-1.75,11.5-2.333c-8.083,9.333-14.417,20-18.833,31.5
		c1.833,1,3.417,2.417,4.667,4c11.75-4.167,24.417-6.417,37.667-6.417c21.834,0,42.25,6.167,59.583,16.917
		c-0.416-6.833-1.416-13.5-3.083-20.083c3.5,3.417,6.833,7,9.75,10.917c0.667,4.75,1,9.5,1,14.333c4.667,3.417,9,7.167,13,11.25
		c1.917,5.333,3.417,10.833,4.333,16.5C338.667,182.5,332.75,176.25,326.083,170.833z"/>
	<path fill="#41307F" d="M224.417,160.417c-1.833,6.333-7.417,11.083-14.25,11.667c-0.167,2.5-0.25,5-0.25,7.5
		c0,28.5,11.333,54.417,29.667,73.5c2.583-1.668,5.583-2.667,8.833-2.667c5.25,0,9.917,2.5,12.833,6.333
		c12.916-6.667,24.25-15.833,33.416-26.917c-2.5-2.833-4-6.583-4-10.667c0-4.833,2.168-9.167,5.5-12.167
		C280.166,182.667,254.334,165.25,224.417,160.417z"/>
	<path fill="#41307F" d="M0,0v500h500V0H0z M197.167,413.166c-3.833,0-8.083,2.168-9.833,7.584c-0.583,1.75-0.75,3.75-0.75,5.833
		v14.25h-9v-35.999h8.583v6.082c0,1.334-0.167,2.418-0.167,2.418h0.167c1.583-5,5.917-9.168,11.417-9.168
		c0.833,0,1.583,0.168,1.583,0.168v8.832C199.25,413.25,198.333,413.166,197.167,413.166z M228.417,440.75v-4.083
		c0-1.417,0.167-2.5,0.167-2.5h-0.167c-1.75,3.333-6.333,7.5-12.5,7.5c-7.667,0-12.5-3.917-12.5-13.667v-23.166h9v21.333
		c0,4.416,1.167,7.333,5.583,7.333c6.5,0,10.083-5.75,10.083-12.167v-16.499h9v35.999L228.417,440.75z M255,441.583
		c-9,0-14-5.25-14-5.25l4.083-6.25c0,0,3.917,3.917,9.833,3.917c2.5,0,4.75-1.167,4.75-3.25c0-5.333-17.5-4.667-17.5-16.25
		c0-6.666,6-10.584,13.75-10.584C264,403.916,268,408,268,408l-3.334,6.666c0,0-3.332-3.082-8.832-3.082
		c-2.334,0-4.584,1-4.584,3.25c0,5.082,17.5,4.416,17.5,15.999C268.75,436.75,263.584,441.583,255,441.583z M274.5,390.584h8.916v8
		H274.5V390.584z M274.584,440.75v-36h9v36H274.584z M308.25,441.5c-11.916,0-19.584-8.417-19.584-18.833
		c0-10.251,7.584-18.833,19.501-18.833c9.416,0,13.833,5.332,13.833,5.332l-3.917,6.168c0,0-3.75-3.918-9.416-3.834
		c-6.667,0-10.917,5-10.917,11.167c0,6.083,4.417,11.25,11.25,11.25c6.083,0,10.583-4.584,10.583-4.584l3.5,6.334
		C323.083,435.667,317.917,441.5,308.25,441.5z M249,352.334c-81,0-146.75-65.668-146.75-146.75c0-81,65.667-146.75,146.75-146.75
		c81,0,146.75,65.667,146.75,146.75C395.667,286.666,330,352.334,249,352.334z"/>
</g>
</svg>
