<?xml version="1.0" encoding="utf-8"?>
<!-- Generator: Adobe Illustrator 15.1.0, SVG Export Plug-In . SVG Version: 6.00 Build 0)  -->
<!DOCTYPE svg PUBLIC "-//W3C//DTD SVG 1.1//EN" "http://www.w3.org/Graphics/SVG/1.1/DTD/svg11.dtd">
<svg version="1.1" id="Layer_1" xmlns="http://www.w3.org/2000/svg" xmlns:xlink="http://www.w3.org/1999/xlink" x="0px" y="0px"
	 width="500px" height="500px" viewBox="0 0 500 500" enable-background="new 0 0 500 500" xml:space="preserve">
<g>
	<path fill="#41307F" d="M249,58.917c-81,0-146.75,65.667-146.75,146.75c0,81,65.667,146.75,146.75,146.75
		c81,0,146.75-65.666,146.75-146.75C395.667,124.583,330,58.917,249,58.917z M249,308c-39.25,0-73.25-22.084-90.417-54.5l0,0l0,0
		l0,0c-7.583-14.25-11.833-30.583-11.833-47.833c0-56.5,45.833-102.333,102.333-102.333c23.833,0,45.75,8.167,63.167,21.833l0,0l0,0
		l0,0C330.5,139.5,343.75,160,349,183.5l0,0l0,0l0,0c1.583,7.167,2.417,14.583,2.417,22.167C351.333,262.166,305.5,308,249,308z"/>
	<path fill="#41307F" d="M197.667,404.334c-5.5,0-9.833,4.082-11.417,9.25h-0.167c0,0,0.167-1.168,0.167-2.5v-6.25h-8.583v35.999h9
		v-14.25c0-2.083,0.25-4.083,0.75-5.833c1.667-5.334,6-7.584,9.833-7.584c1.167,0,2.083,0.168,2.083,0.168V404.5
		C199.25,404.416,198.5,404.334,197.667,404.334z"/>
	<path fill="#41307F" d="M228,404.75v16.5c0,6.417-3.583,12.167-10.083,12.167c-4.417,0-5.583-2.917-5.583-7.334V404.75h-9v23.167
		c0,9.833,4.833,13.666,12.5,13.666c6.167,0,10.75-3.75,12.5-7.5h0.167c0,0-0.167,1.167-0.167,2.5v4.084h8.583v-36.001L228,404.75z"
		/>
	<path fill="#41307F" d="M251.25,414.75c0-2.25,2.25-3.25,4.584-3.25c5.5,0,8.832,3.084,8.832,3.084l3.334-6.668
		c0,0-3.916-4.082-12.084-4.082c-7.75,0-13.75,3.916-13.75,10.582c0,11.584,17.5,10.834,17.5,16.251c0,2.083-2.166,3.25-4.75,3.25
		c-5.833,0-9.833-3.917-9.833-3.917L241,436.25c0,0,5,5.25,14,5.25c8.5,0,13.75-4.833,13.75-10.833
		C268.75,419.166,251.25,419.834,251.25,414.75z"/>
	<rect x="274.5" y="390.584" fill="#41307F" width="8.916" height="8"/>
	
		<rect x="261.062" y="418.258" transform="matrix(8.952179e-04 1 -1 8.952179e-04 701.5703 143.318)" fill="#41307F" width="36" height="9"/>
	<path fill="#41307F" d="M309,433.917c-6.833,0-11.25-5.25-11.25-11.25c0-6.167,4.333-11.167,10.917-11.167
		c5.666,0,9.416,3.834,9.416,3.834l3.917-6.168c0,0-4.417-5.332-13.833-5.332c-11.917,0-19.501,8.666-19.501,18.833
		c0,10.416,7.668,18.833,19.584,18.833c9.667,0,14.833-5.833,14.833-5.833l-3.5-6.334C319.583,429.333,315.083,433.917,309,433.917z
		"/>
	<path fill="#41307F" d="M326.417,161.583c0-4.833-0.417-9.583-1-14.333c-3-3.917-6.25-7.583-9.75-10.917
		c1.666,6.5,2.666,13.25,3.083,20.083C301.417,145.667,281,139.5,259.166,139.5c-13.166,0-25.833,2.25-37.666,6.417
		c-1.25-1.583-2.833-3-4.667-4c4.417-11.5,10.75-22.167,18.833-31.5c-3.917,0.583-7.75,1.333-11.5,2.333
		c-6.083,8.333-11,17.417-14.583,27.083c-0.25,0-0.5,0-0.75,0c-7.75,0-14.25,5.417-15.833,12.75c-10,1.25-19.583,3.833-28.75,7.583
		c-1.833,3.417-3.417,6.917-4.917,10.583c10.5-5.333,21.917-9,33.833-10.583c0.083,0.167,0.083,0.333,0.167,0.5
		c-18.083,12.917-32.25,31-40.25,52.083c0.417,5.833,1.333,11.5,2.75,17c5.75-25.583,20.75-47.667,41.333-62.5
		c1.583,1.667,3.5,2.917,5.583,3.833c-0.25,2.833-0.333,5.75-0.333,8.667c0,30.667,12.25,58.5,32.083,79
		c-1.333,2.416-2.167,5.166-2.167,8.084c0,0.082,0,0.082,0,0.082c-6.333,1.168-12.75,1.834-19.417,1.834
		c-15.333,0-30.333-3.416-44-9.666c2.75,4.082,5.833,8,9.083,11.666c11.167,3.584,22.917,5.5,34.833,5.5c7.25,0,14.333-0.75,21.25-2
		c2.667,5.166,8.083,8.75,14.333,8.75c4.417,0,8.333-1.75,11.25-4.584c10.418,5.918,21.75,10.25,33.834,12.668
		c3.5-1.834,6.833-3.834,10-6.084c-14.334-1.666-27.834-6.25-39.834-13.084c0.584-1.666,0.918-3.416,0.918-5.25
		c0-1-0.084-2-0.25-2.916c14.082-7.25,26.5-17.25,36.499-29.417c1.917,0.75,3.917,1.167,6.084,1.167
		c0.833,0,1.583-0.083,2.416-0.167c2.834,9.5,4.334,19.5,4.334,29.917c0,4.166-0.25,8.334-0.75,12.416
		c2.916-2.582,5.666-5.332,8.25-8.25c0.083-1.416,0.083-2.832,0.083-4.166c0-11.416-1.667-22.417-4.833-32.75
		c4.083-2.917,6.75-7.75,6.75-13.167c0-4.917-2.25-9.333-5.667-12.333c4.75-11.167,7.75-23.333,8.75-36
		c6.583,5.417,12.583,11.583,17.75,18.417c-1-5.667-2.417-11.167-4.333-16.5C335.417,168.75,331.083,165,326.417,161.583z
		 M290.666,219.25c0,4.083,1.5,7.75,4,10.667c-9.166,11.083-20.5,20.25-33.416,26.917c-3-3.834-7.584-6.334-12.833-6.334
		c-3.25,0-6.333,1-8.833,2.666c-18.333-19.083-29.667-45-29.667-73.5c0-2.5,0.083-5,0.25-7.5c6.75-0.583,12.417-5.333,14.25-11.667
		c30,4.833,55.833,22.25,71.833,46.667C292.834,210,290.666,214.333,290.666,219.25z M310.667,203.5
		c-1.167-0.25-2.417-0.417-3.75-0.417c-1.334,0-2.667,0.167-4,0.5c-17.333-26.667-45.501-45.75-78.167-50.75v-0.083
		c10.833-3.75,22.417-5.75,34.416-5.75c22.084,0,42.667,6.833,59.667,18.417C318.417,178.833,315.583,191.667,310.667,203.5z"/>
</g>
</svg>
