<?xml version="1.0" encoding="utf-8"?>
<!-- Generator: Adobe Illustrator 15.1.0, SVG Export Plug-In . SVG Version: 6.00 Build 0)  -->
<!DOCTYPE svg PUBLIC "-//W3C//DTD SVG 1.1//EN" "http://www.w3.org/Graphics/SVG/1.1/DTD/svg11.dtd">
<svg version="1.1" id="Layer_1" xmlns="http://www.w3.org/2000/svg" xmlns:xlink="http://www.w3.org/1999/xlink" x="0px" y="0px"
	 width="500px" height="500px" viewBox="0 0 500 500" enable-background="new 0 0 500 500" xml:space="preserve">
<g>
	<path fill="#41307F" d="M147.962,199.497L147.962,199.497h0.165c-9.655-7.592-21.704-12.048-34.824-12.048
		c-31.276,0-56.528,25.334-56.528,56.61c0,9.572,2.393,18.567,6.602,26.489l0,0l0,0c9.49,17.907,28.305,30.12,50.008,30.12
		c31.275,0,56.61-25.334,56.61-56.609c0-4.209-0.495-8.335-1.32-12.296l0,0C166.117,218.807,158.689,207.501,147.962,199.497z
		 M156.049,224.831c-0.495,7.014-2.146,13.698-4.786,19.97c1.898,1.65,3.136,4.126,3.136,6.85c0,2.971-1.485,5.61-3.713,7.262
		c1.733,5.777,2.641,11.801,2.641,18.154c0,0.744,0,1.567-0.083,2.312c-1.403,1.567-2.971,3.136-4.539,4.538
		c0.248-2.311,0.413-4.538,0.413-6.85c0-5.775-0.825-11.306-2.394-16.504c-0.413,0.082-0.908,0.082-1.32,0.082
		c-1.155,0-2.311-0.246-3.383-0.66c-5.529,6.768-12.378,12.297-20.135,16.258c0.083,0.494,0.165,1.072,0.165,1.65
		c0,0.989-0.165,1.979-0.495,2.889c6.602,3.795,14.111,6.271,22.033,7.179c-1.733,1.237-3.631,2.312-5.529,3.301
		c-6.684-1.319-12.956-3.714-18.732-7.015c-1.65,1.568-3.796,2.559-6.272,2.559c-3.466,0-6.437-1.98-7.922-4.869
		c-3.796,0.743-7.757,1.156-11.718,1.156c-6.602,0-13.121-1.072-19.31-3.054c-1.815-1.979-3.548-4.126-5.034-6.437
		c7.592,3.465,15.844,5.362,24.344,5.362c3.631,0,7.262-0.33,10.728-0.989v-0.082c0-1.65,0.413-3.138,1.155-4.457
		c-10.976-11.306-17.742-26.736-17.742-43.653c0-1.568,0.083-3.218,0.165-4.786c-1.155-0.495-2.228-1.238-3.053-2.146
		c-11.388,8.252-19.64,20.466-22.858,34.577c-0.743-3.054-1.321-6.188-1.486-9.407c4.457-11.636,12.296-21.621,22.281-28.8
		c0-0.083-0.083-0.165-0.083-0.248c-6.602,0.908-12.874,2.888-18.732,5.859c0.825-1.981,1.65-3.961,2.723-5.859
		c5.034-2.063,10.397-3.548,15.927-4.208c0.908-4.043,4.456-7.014,8.747-7.014c0.165,0,0.248,0,0.413,0
		c1.98-5.364,4.704-10.398,8.087-14.937c2.063-0.578,4.208-0.99,6.354-1.32c-4.456,5.199-8.004,11.058-10.397,17.412
		c0.99,0.578,1.898,1.32,2.558,2.228c6.519-2.311,13.533-3.548,20.795-3.548c12.048,0,23.354,3.466,32.926,9.325
		c-0.248-3.796-0.825-7.509-1.733-11.058c1.98,1.898,3.796,3.879,5.446,6.024c0.33,2.641,0.578,5.281,0.578,7.922
		c2.558,1.898,4.951,3.961,7.179,6.189c1.073,2.888,1.898,5.941,2.394,9.16C162.98,231.185,159.68,227.802,156.049,224.831z"/>
	<path fill="#41307F" d="M99.934,214.763C99.934,214.763,99.934,214.846,99.934,214.763c18.072,2.806,33.669,13.369,43.241,28.058
		c0.743-0.165,1.403-0.248,2.228-0.248c0.743,0,1.403,0.083,2.063,0.248c2.723-6.52,4.291-13.616,4.539-21.043
		c-9.408-6.437-20.795-10.232-33.009-10.232C112.312,211.627,105.958,212.7,99.934,214.763z"/>
	<path fill="#41307F" d="M-0.041,0v500h500.082V0H-0.041z M374.071,199.084H388.1v13.204h-14.028V199.084z M113.385,309.663
		c-36.228,0-65.605-29.378-65.605-65.604c0-36.227,29.377-65.605,65.605-65.605c36.227,0,65.604,29.378,65.604,65.605
		C178.99,280.285,149.612,309.663,113.385,309.663z M251.113,235.724c0,0-1.32-0.248-3.218-0.248
		c-6.189,0-13.286,3.548-16.009,12.296c-0.908,2.888-1.32,6.107-1.32,9.49v23.521h-14.029V222.19h14.029v9.903
		c0,2.146-0.413,4.126-0.413,4.126h0.248c2.641-8.252,9.408-15.019,18.402-15.019c1.403,0,2.476,0.248,2.476,0.248v14.276H251.113z
		 M313.006,280.781h-14.029v-7.016c0-2.312,0.083-4.539,0.083-4.539h-0.247c-2.889,6.603-10.149,12.379-20.137,12.379
		c-12.461,0-20.135-6.106-20.135-22.033V222.19h14.029v34.412c0,7.099,1.896,11.883,9.158,11.883
		c10.563,0,16.423-9.241,16.423-19.721V222.19h14.854L313.006,280.781L313.006,280.781z M342.053,281.771
		c-14.522,0-22.692-8.584-22.692-8.584l6.685-10.231c0,0,6.438,6.437,15.927,6.437c4.126,0,7.676-1.814,7.676-5.281
		c0-8.664-28.389-7.592-28.389-26.324c0-10.893,9.737-17.165,22.363-17.165c13.203,0,19.558,6.685,19.558,6.685l-5.363,10.81
		c0,0-5.363-5.034-14.358-5.034c-3.796,0-7.427,1.568-7.427,5.281c0,8.252,28.388,7.18,28.388,25.995
		C364.334,274.014,355.917,281.771,342.053,281.771z M388.101,280.781h-14.028V222.19h14.028V280.781z M428.453,281.771
		c-19.394,0-31.771-13.617-31.771-30.617c0-16.586,12.378-30.615,31.771-30.615c15.267,0,22.446,8.748,22.446,8.748l-6.438,9.985
		c0,0-6.105-6.271-15.267-6.271c-10.729,0-17.742,8.169-17.742,18.072c0,9.819,7.097,18.319,18.237,18.319
		c9.819,0,17.163-7.427,17.163-7.427l5.612,10.315C452.468,272.281,444.133,281.771,428.453,281.771z"/>
	<path fill="#41307F" d="M99.769,219.054c-0.99,3.548-4.126,6.107-7.84,6.437c-0.083,1.403-0.165,2.723-0.165,4.126
		c0,15.762,6.272,30.121,16.422,40.601c1.403-0.907,3.053-1.485,4.869-1.485c2.888,0,5.446,1.402,7.097,3.55
		c7.097-3.714,13.451-8.748,18.485-14.854c-1.403-1.566-2.228-3.631-2.228-5.857c0-2.724,1.155-5.117,3.053-6.767
		C130.632,231.35,116.356,221.695,99.769,219.054z"/>
</g>
</svg>
