<?xml version="1.0" encoding="utf-8"?>
<!-- Generator: Adobe Illustrator 15.1.0, SVG Export Plug-In . SVG Version: 6.00 Build 0)  -->
<!DOCTYPE svg PUBLIC "-//W3C//DTD SVG 1.1//EN" "http://www.w3.org/Graphics/SVG/1.1/DTD/svg11.dtd">
<svg version="1.1" id="Layer_1" xmlns="http://www.w3.org/2000/svg" xmlns:xlink="http://www.w3.org/1999/xlink" x="0px" y="0px"
	 width="500px" height="500px" viewBox="0 0 500 500" enable-background="new 0 0 500 500" xml:space="preserve">
<g>
	<path fill="#FFFFFF" d="M216.373,222.025h13.946v10.068c0,2.146-0.248,4.126-0.248,4.126h0.248
		c2.641-8.334,9.655-15.019,18.567-15.019c1.403,0,2.641,0.248,2.641,0.248v14.359c0,0-1.485-0.248-3.466-0.248
		c-6.189,0-13.203,3.548-15.927,12.296c-0.908,2.888-1.238,6.106-1.238,9.489v23.107h-14.523V222.025z"/>
	<path fill="#FFFFFF" d="M258.293,222.025h14.523v34.577c0,7.099,1.815,11.883,9.078,11.883c10.562,0,16.422-9.241,16.422-19.721
		v-26.737h14.523v58.426h-13.946v-6.687c0-2.311,0.247-4.125,0.247-4.125h-0.247c-2.889,6.106-10.314,12.131-20.301,12.131
		c-12.461,0-20.301-6.271-20.301-22.198L258.293,222.025L258.293,222.025z"/>
	<path fill="#FFFFFF" d="M325.961,263.039c0,0,6.438,6.436,15.927,6.436c4.126,0,7.675-1.813,7.675-5.281
		c0-8.664-28.388-7.592-28.388-26.323c0-10.893,9.738-17.165,22.363-17.165c13.204,0,19.558,6.685,19.558,6.685l-5.362,10.81
		c0,0-5.364-5.034-14.359-5.034c-3.796,0-7.427,1.568-7.427,5.281c0,8.252,28.388,7.18,28.388,25.995
		c0,9.738-8.5,17.494-22.363,17.494c-14.523,0-22.692-8.582-22.692-8.582L325.961,263.039z"/>
	<path fill="#FFFFFF" d="M373.741,199.084h14.44v12.956h-14.44V199.084z M373.741,222.025h14.523v58.426h-14.523V222.025z"/>
	<path fill="#FFFFFF" d="M428.453,220.622c15.267,0,22.446,8.748,22.446,8.748l-6.438,9.985c0,0-6.105-6.271-15.267-6.271
		c-10.729,0-17.742,8.17-17.742,18.072c0,9.82,7.097,18.318,18.237,18.318c9.819,0,17.163-7.426,17.163-7.426l5.612,10.314
		c0,0-8.335,9.49-24.097,9.49c-19.394,0-31.771-13.617-31.771-30.615C396.683,234.568,409.061,220.622,428.453,220.622z"/>
</g>
<g>
	<g>
		<path fill="#FFFFFF" d="M113.385,178.454c-36.228,0-65.605,29.378-65.605,65.605s29.377,65.604,65.605,65.604
			c36.227,0,65.604-29.378,65.604-65.604C178.99,207.832,149.612,178.454,113.385,178.454z M113.385,300.668
			c-21.704,0-40.519-12.213-50.008-30.12l0,0l0,0l0,0c-4.209-7.922-6.602-16.917-6.602-26.489c0-31.276,25.334-56.61,56.61-56.61
			c13.203,0,25.334,4.539,34.907,12.048l0,0l0,0l0,0c10.15,7.922,17.412,19.228,20.3,32.266l0,0l0,0l0,0
			c0.908,3.961,1.32,8.087,1.32,12.296C169.995,275.334,144.661,300.668,113.385,300.668z"/>
		<path fill="#FFFFFF" d="M156.214,219.632c0-2.641-0.248-5.281-0.578-7.922c-1.65-2.146-3.466-4.209-5.446-6.024
			c0.908,3.631,1.485,7.345,1.733,11.058c-9.573-5.941-20.878-9.325-32.926-9.325c-7.262,0-14.276,1.238-20.795,3.548
			c-0.743-0.908-1.568-1.65-2.558-2.228c2.393-6.354,5.941-12.296,10.397-17.412c-2.146,0.33-4.291,0.743-6.354,1.32
			c-3.383,4.621-6.024,9.655-8.087,14.937c-0.165,0-0.248,0-0.413,0c-4.291,0-7.839,3.053-8.747,7.014
			c-5.529,0.743-10.893,2.146-15.927,4.208c-0.99,1.898-1.898,3.796-2.723,5.859c5.859-2.971,12.13-4.952,18.732-5.859
			c0,0.083,0.083,0.165,0.083,0.248c-9.985,7.18-17.825,17.165-22.281,28.8c0.248,3.218,0.743,6.354,1.486,9.408
			c3.218-14.112,11.47-26.325,22.858-34.578c0.825,0.908,1.898,1.651,3.053,2.146c-0.083,1.568-0.165,3.136-0.165,4.786
			c0,17,6.767,32.349,17.742,43.653c-0.743,1.32-1.155,2.807-1.155,4.457v0.082c-3.466,0.66-7.097,0.99-10.728,0.99
			c-8.5,0-16.752-1.898-24.344-5.365c1.485,2.312,3.218,4.457,5.034,6.438c6.189,1.979,12.708,3.053,19.31,3.053
			c4.044,0,7.922-0.411,11.718-1.153c1.485,2.888,4.456,4.867,7.922,4.867c2.393,0,4.621-0.99,6.271-2.558
			c5.776,3.301,12.048,5.692,18.732,7.015c1.898-0.99,3.796-2.146,5.529-3.302c-7.922-0.907-15.349-3.466-22.033-7.18
			c0.33-0.907,0.495-1.897,0.495-2.888c0-0.578-0.083-1.073-0.165-1.65c7.84-3.962,14.689-9.573,20.135-16.257
			c1.073,0.411,2.146,0.659,3.383,0.659c0.413,0,0.908-0.082,1.321-0.082c1.568,5.281,2.393,10.811,2.393,16.504
			c0,2.312-0.165,4.621-0.413,6.851c1.568-1.403,3.136-2.971,4.539-4.539c0-0.741,0.083-1.567,0.083-2.312
			c0-6.271-0.908-12.379-2.641-18.154c2.228-1.65,3.713-4.291,3.713-7.262c0-2.723-1.238-5.199-3.136-6.849
			c2.641-6.189,4.291-12.874,4.786-19.97c3.631,2.971,6.932,6.437,9.82,10.232c-0.578-3.136-1.32-6.189-2.394-9.16
			C161.165,223.593,158.772,221.53,156.214,219.632z M136.409,251.568c0,2.228,0.825,4.291,2.228,5.857
			c-5.034,6.106-11.306,11.225-18.485,14.854c-1.65-2.146-4.208-3.549-7.097-3.549c-1.816,0-3.466,0.578-4.869,1.485
			c-10.15-10.562-16.422-24.839-16.422-40.601c0-1.403,0.083-2.806,0.165-4.126c3.796-0.33,6.85-2.971,7.84-6.437
			c16.587,2.641,30.863,12.296,39.693,25.83C137.646,246.452,136.409,248.845,136.409,251.568z M147.467,242.821
			c-0.661-0.165-1.321-0.248-2.063-0.248c-0.742,0-1.485,0.083-2.228,0.248c-9.572-14.771-25.169-25.252-43.241-28.058
			c0,0,0,0,0-0.083c5.941-2.063,12.378-3.218,19.062-3.218c12.213,0,23.601,3.796,33.009,10.232
			C151.758,229.205,150.19,236.301,147.467,242.821z"/>
	</g>
</g>
</svg>
